<?xml version="1.0" encoding="utf-8"?>
<!-- Generator: Adobe Illustrator 26.3.1, SVG Export Plug-In . SVG Version: 6.00 Build 0)  -->
<svg version="1.1" id="Layer_1" xmlns="http://www.w3.org/2000/svg" xmlns:xlink="http://www.w3.org/1999/xlink" x="0px" y="0px"
	 viewBox="0 0 943.7 700" style="enable-background:new 0 0 943.7 700;" xml:space="preserve">  <!-- 0 0 943.7 906.3 -->
<style type="text/css">

	.st0{fill:none;}
	.st1{fill:url(#SVGID_1_);stroke:#141313;stroke-miterlimit:10;}
	.st2{fill:url(#SVGID_00000009578621457065413410000011473090404272805782_);stroke:#141313;stroke-miterlimit:10;}
	.st3{font-family:'BankGothicBT-Light';}
	.st4{font-size:58.5632px;}
	.st4:hover{fill:white;}
</style>
<path class="st0" d="M672.9,582.2c-1.4-1.3-2.8-2.8-4-4.3c-1.6-0.9-3.2-1.9-4.8-2.8c2.5,4.8,5.2,9.6,8.1,14.2
	C672.5,587,672.7,584.6,672.9,582.2z"/>
<path class="st0" d="M492.8,371.4c-22.6-0.9-45.2-0.9-67.8,0c9.7,13.9,21.1,26.6,33.9,37.6C471.7,398,483.1,385.4,492.8,371.4z"/>
<path class="st0" d="M391,282.7c1.1,8.6,2.7,17,4.8,25.2c42-2.8,84.2-2.8,126.2,0.1c2.1-8.2,3.8-16.7,4.9-25.3
	C481.6,278.9,436.2,278.9,391,282.7z"/>
<g>
	
		<linearGradient id="SVGID_1_" gradientUnits="userSpaceOnUse" x1="133.5" y1="1091.3375" x2="783.9999" y2="1091.3375" gradientTransform="matrix(1 0 0 -1 0 1194)">
		<stop  offset="0" style="stop-color:#151515"/>
		<stop  offset="0.5" style="stop-color:#FFFFFF"/>
		<stop  offset="1" style="stop-color:#0C0C0C"/>
		<stop  offset="1" style="stop-color:#000000"/>
		<stop  offset="1" style="stop-color:#E40000"/>
		<stop  offset="1" style="stop-color:#F70000"/>
		<stop  offset="1" style="stop-color:#F70000"/>
		<stop  offset="1" style="stop-color:#F70000"/>
	</linearGradient>
	<path class="st1" d="M527.6,54.7c-45.9-3.7-92-3.7-137.9,0c-87.3,7-173.7,27.3-256.2,60.8c3.1,13.2,7.5,25.8,13.1,37.9
		c78.6-32.2,161-51.8,244.2-58.7c45.2-3.7,90.7-3.7,135.9,0c83.2,6.9,165.6,26.4,244.2,58.7c5.6-12,10-24.7,13.1-37.9
		C701.2,82,614.8,61.7,527.6,54.7z"/>
	
		<linearGradient id="SVGID_00000052810154384129296570000011322940212396407475_" gradientUnits="userSpaceOnUse" x1="154.3" y1="769.95" x2="762.6" y2="769.95" gradientTransform="matrix(1 0 0 -1 0 1194)">
		<stop  offset="0" style="stop-color:#151515"/>
		<stop  offset="0.5" style="stop-color:#FFFFFF"/>
		<stop  offset="1" style="stop-color:#0C0C0C"/>
		<stop  offset="1" style="stop-color:#000000"/>
		<stop  offset="1" style="stop-color:#E40000"/>
		<stop  offset="1" style="stop-color:#F70000"/>
		<stop  offset="1" style="stop-color:#F70000"/>
		<stop  offset="1" style="stop-color:#F70000"/>
	</linearGradient>
	<path style="fill:url(#SVGID_00000052810154384129296570000011322940212396407475_);stroke:#141313;stroke-miterlimit:10;" d="
		M529.2,120.6l-69.6,84.5l-69.8-84.7c-79.7,5.9-158.9,22-235.5,48.4c19.8,34.5,49.5,62.6,85.3,80.3c-2.7-18.9,9.6-37.9,29.8-45.4
		c36.3-8.1,72.9-13.8,109.7-17.1L459,727.7l79.8-541c36.2,3.4,72.1,9,107.8,17c20.5,7.6,32.7,26.9,29.8,46
		c36.2-17.6,66.3-45.8,86.2-80.5C686.8,142.8,608.3,126.6,529.2,120.6z"/>
</g>
<!-- <text transform="matrix(1 0 0 1 133.5 812.2947)" class="st3 st4" id="txt">COME DISCOVER TESLA</text> -->
</svg>
